<?xml version="1.0" standalone="no"?>
<!DOCTYPE svg PUBLIC "-//W3C//DTD SVG 20010904//EN"
 "http://www.w3.org/TR/2001/REC-SVG-20010904/DTD/svg10.dtd">
<svg version="1.0" xmlns="http://www.w3.org/2000/svg"
 width="1024.000000pt" height="1024.000000pt" viewBox="0 0 1024.000000 1024.000000"
 preserveAspectRatio="xMidYMid meet">
<metadata>
Created by potrace 1.14, written by Peter Selinger 2001-2017
</metadata>
<g transform="translate(0.000000,1024.000000) scale(0.100000,-0.100000)"
fill="#000000" stroke="none">
<path d="M6150 8630 c-7 -4 -10 -12 -6 -18 3 -6 1 -14 -5 -18 -8 -4 -9 -3 -5
4 4 7 2 12 -3 12 -6 0 -11 -9 -11 -19 0 -11 -5 -23 -12 -27 -7 -5 -8 -3 -3 6
5 9 4 11 -4 6 -7 -5 -9 -16 -5 -29 6 -20 6 -20 -10 -4 -20 20 -31 22 -20 5 10
-16 12 -58 2 -52 -4 3 -8 -2 -8 -11 0 -10 5 -13 13 -9 7 4 9 3 4 -2 -5 -5 -14
-9 -20 -9 -7 0 -12 -10 -11 -22 0 -16 -3 -20 -11 -13 -9 8 -11 3 -7 -16 4 -20
2 -25 -8 -19 -8 5 -11 4 -7 -2 4 -6 0 -16 -8 -23 -12 -10 -13 -16 -3 -28 7 -9
9 -13 3 -10 -5 3 -19 -6 -30 -21 -15 -20 -15 -23 -2 -12 27 22 20 -4 -10 -33
-21 -21 -23 -25 -7 -21 17 6 17 5 3 -7 -9 -7 -14 -19 -12 -25 3 -7 -3 -16 -12
-19 -13 -5 -14 -8 -3 -15 10 -7 9 -9 -4 -9 -9 0 -20 -5 -24 -12 -4 -7 -3 -8 4
-4 19 11 14 -5 -5 -20 -16 -12 -16 -15 -3 -24 11 -7 11 -10 2 -10 -7 0 -11 -4
-8 -9 3 -5 -6 -20 -21 -35 -14 -14 -21 -26 -14 -26 6 0 1 -10 -10 -21 -17 -17
-19 -23 -8 -30 11 -7 10 -9 -3 -9 -10 0 -19 -3 -19 -7 -6 -35 -5 -52 3 -47 6
4 5 -3 -1 -15 -7 -11 -14 -21 -17 -21 -3 0 -2 6 2 13 5 9 4 9 -5 1 -13 -12
-24 -57 -12 -50 4 3 8 -1 8 -8 0 -8 -6 -12 -13 -9 -8 3 -11 -4 -10 -21 2 -17
-2 -26 -11 -26 -8 0 -11 -5 -8 -10 4 -6 11 -7 17 -4 7 5 8 2 4 -5 -5 -7 -15
-10 -25 -6 -12 5 -13 4 -4 -6 10 -10 9 -15 -5 -26 -9 -8 -11 -11 -3 -7 9 4 12
2 9 -7 -3 -8 -12 -13 -19 -11 -11 3 -11 1 -2 -9 10 -10 9 -15 -5 -25 -10 -8
-12 -13 -4 -14 6 0 12 -5 12 -11 0 -6 -6 -9 -13 -6 -8 3 -14 -1 -14 -9 0 -7 3
-11 7 -9 4 2 7 -2 7 -10 0 -8 -4 -12 -8 -9 -4 2 -10 0 -14 -6 -3 -5 0 -10 7
-10 9 0 9 -3 2 -8 -11 -7 -29 -60 -25 -75 1 -5 -3 -5 -9 -2 -7 4 -10 -3 -8
-22 2 -19 -1 -27 -11 -25 -9 2 -11 -3 -7 -14 5 -12 2 -15 -11 -10 -14 6 -15 4
-6 -5 9 -9 8 -15 -3 -26 -8 -8 -14 -23 -14 -34 0 -11 -4 -17 -10 -14 -6 4 -8
-6 -6 -24 2 -18 -1 -29 -8 -28 -6 1 -10 -6 -10 -15 1 -11 -5 -18 -15 -18 -14
0 -14 -2 -1 -10 13 -9 7 -14 -12 -11 -5 0 -7 -2 -7 -7 4 -25 -3 -42 -18 -42
-9 0 -14 -3 -10 -6 6 -7 -29 -84 -39 -84 -3 0 -2 5 2 12 4 7 3 8 -4 4 -6 -4
-8 -14 -5 -23 4 -11 3 -14 -5 -9 -8 5 -12 0 -12 -14 0 -12 -4 -19 -9 -15 -10
6 -26 -32 -23 -52 2 -6 -3 -15 -9 -19 -8 -5 -9 -3 -4 6 5 8 4 11 -3 6 -6 -3
-9 -15 -7 -26 2 -11 -1 -20 -6 -20 -6 0 -7 -5 -3 -12 5 -8 2 -9 -11 -4 -15 5
-16 4 -5 -9 10 -12 9 -15 -6 -15 -14 0 -16 -2 -6 -9 11 -7 11 -9 -2 -14 -9 -4
-16 -11 -16 -17 0 -6 6 -8 13 -4 12 8 -11 -26 -26 -37 -5 -3 -9 -10 -10 -15
-1 -5 -6 -8 -11 -6 -5 2 -6 -7 -2 -20 3 -13 6 -29 6 -36 0 -9 7 -11 23 -7 15
4 18 3 8 -3 -8 -6 -11 -18 -6 -31 l6 -21 -664 0 -665 0 -19 33 c-10 17 -27 52
-38 77 -11 25 -22 47 -26 50 -4 3 -17 30 -29 60 -13 30 -29 60 -37 66 -7 6
-13 16 -13 23 0 10 -37 76 -88 156 -7 11 -15 28 -18 38 -4 9 -11 17 -16 17 -5
0 -7 4 -4 9 4 5 3 11 -1 13 -5 1 -23 32 -42 68 -18 36 -36 67 -40 70 -3 3 -24
40 -45 83 -21 42 -43 77 -48 77 -5 0 -7 4 -4 9 3 4 -7 28 -22 52 -47 74 -101
165 -130 221 -16 29 -43 80 -62 113 -18 33 -38 71 -45 85 -6 14 -21 45 -33 70
-12 25 -22 51 -22 58 0 6 -5 12 -12 12 -6 0 -9 3 -5 6 10 11 -43 105 -55 98
-6 -4 -8 -3 -5 3 4 6 -2 21 -13 33 -11 13 -20 19 -20 14 0 -5 -7 -1 -15 10 -7
10 -18 15 -24 11 -6 -3 -11 -1 -11 5 0 6 -5 8 -12 4 -10 -6 -10 -4 0 8 10 13
10 18 1 24 -8 4 -9 3 -5 -4 4 -7 1 -12 -8 -12 -9 0 -15 3 -15 8 4 25 -2 34
-15 23 -11 -9 -16 -9 -22 0 -5 8 -3 10 7 4 8 -5 10 -4 6 0 -11 13 -37 15 -37
4 0 -5 -11 -7 -25 -5 -14 3 -25 0 -25 -6 0 -5 -6 -8 -14 -5 -7 3 -18 1 -23 -4
-7 -7 -18 -1 -32 17 -24 30 -26 29 -94 -38 -37 -38 -48 -55 -24 -42 6 4 4 -2
-7 -14 -10 -12 -23 -19 -27 -16 -5 3 -6 -3 -2 -12 4 -12 3 -15 -5 -10 -8 5
-10 2 -6 -8 3 -9 1 -16 -5 -16 -6 0 -11 -7 -11 -16 0 -8 -4 -13 -9 -9 -6 3 -8
-3 -6 -15 2 -11 -1 -23 -7 -26 -7 -5 -8 -2 -3 6 5 9 4 11 -3 6 -7 -4 -12 -14
-12 -22 0 -10 -5 -12 -12 -8 -9 5 -9 3 1 -9 11 -14 11 -18 -3 -23 -9 -3 -16
-15 -16 -25 0 -10 -5 -19 -11 -19 -5 0 -7 6 -3 13 4 7 3 9 -2 4 -9 -9 -11 -14
-13 -48 -1 -12 -5 -17 -13 -13 -7 5 -9 0 -6 -14 4 -12 1 -20 -4 -19 -6 1 -13
-4 -16 -12 -3 -9 0 -11 9 -6 8 4 1 -5 -16 -19 -27 -25 -28 -26 -5 -15 l25 12
-20 -23 c-11 -12 -18 -24 -17 -27 2 -3 0 -8 -4 -11 -4 -4 -4 -1 0 5 5 9 2 11
-9 7 -14 -6 -14 -8 2 -20 16 -12 17 -13 1 -14 -9 0 -20 -5 -24 -12 -4 -7 -3
-8 4 -4 7 4 12 3 12 -2 0 -6 -7 -13 -16 -16 -14 -5 -14 -9 -3 -23 12 -14 12
-16 0 -8 -11 6 -13 4 -8 -8 4 -10 0 -20 -9 -25 -9 -5 -17 -13 -17 -18 -1 -5
-6 -8 -12 -6 -5 2 -5 -2 1 -8 12 -12 -6 -63 -28 -76 -7 -5 -8 -2 -3 6 5 9 4
11 -4 6 -9 -6 -9 -11 -1 -21 8 -10 8 -15 -1 -21 -8 -5 -9 -3 -4 6 6 9 4 11 -4
5 -7 -4 -11 -18 -8 -31 3 -15 -1 -28 -10 -33 -8 -4 -14 -11 -14 -14 3 -21 0
-27 -11 -21 -9 5 -8 2 1 -10 13 -15 12 -18 -8 -23 -17 -4 -19 -8 -9 -14 10 -7
10 -9 -2 -9 -13 0 -13 -1 0 -10 13 -8 13 -10 -2 -10 -9 0 -20 -5 -24 -12 -5
-8 -2 -9 10 -5 10 4 15 3 11 -3 -3 -6 -14 -10 -23 -11 -14 0 -13 -2 3 -9 17
-7 17 -9 3 -9 -12 -1 -15 -6 -11 -18 5 -13 2 -15 -11 -10 -13 5 -15 3 -7 -10
6 -12 4 -21 -7 -31 -10 -7 -12 -11 -6 -8 6 3 11 -1 11 -8 0 -8 -6 -12 -13 -9
-6 2 -15 -1 -20 -8 -5 -8 -3 -10 6 -4 8 5 11 3 8 -6 -3 -8 -11 -13 -17 -11 -9
2 -9 -3 0 -20 6 -13 8 -20 4 -16 -14 13 -37 -13 -25 -27 8 -10 8 -15 -1 -21
-8 -5 -9 -3 -4 6 5 9 4 11 -4 6 -9 -6 -9 -11 0 -22 10 -12 9 -13 -7 -7 -16 5
-17 4 -7 -8 13 -17 -5 -49 -28 -49 -11 0 -11 -2 1 -10 14 -9 7 -14 -13 -11 -5
1 -6 -3 -2 -9 4 -6 1 -17 -5 -25 -6 -8 -9 -19 -5 -25 3 -5 -1 -10 -11 -10 -13
0 -14 -3 -5 -14 9 -10 7 -17 -6 -27 -16 -13 -17 -12 -4 4 9 11 10 17 2 17 -12
0 -13 -2 -15 -40 -2 -33 -14 -50 -29 -44 -8 3 -13 -4 -13 -15 0 -16 3 -18 15
-8 10 8 8 3 -3 -15 -10 -16 -23 -28 -30 -28 -6 0 -6 -4 3 -9 11 -7 11 -13 0
-32 -6 -13 -20 -30 -30 -37 -10 -7 -16 -21 -14 -32 3 -14 -2 -20 -13 -20 -15
0 -15 -2 -2 -10 14 -9 7 -14 -13 -11 -5 1 -6 -7 -3 -17 3 -10 -1 -27 -10 -38
-14 -18 -15 -18 -4 6 11 24 10 24 -4 6 -9 -11 -16 -26 -16 -33 0 -7 -5 -13
-11 -13 -5 0 -8 -4 -5 -9 3 -5 -2 -12 -12 -16 -16 -6 -16 -8 3 -22 20 -15 20
-15 -3 -8 -20 6 -21 4 -13 -18 6 -14 7 -28 3 -33 -4 -4 -1 -4 6 0 8 5 12 0 12
-13 0 -11 4 -22 9 -25 5 -4 8 -14 7 -23 -3 -18 15 -44 25 -37 12 7 48 -36 43
-51 -11 -27 34 -17 63 15 23 26 73 44 59 21 -3 -5 1 -11 9 -15 16 -6 29 9 20
24 -4 6 1 7 11 3 12 -4 15 -3 10 5 -4 7 -3 12 3 12 6 0 8 7 5 15 -4 10 0 15
11 15 9 0 14 4 10 9 -5 9 32 51 45 51 4 0 13 12 21 28 7 15 28 50 46 79 18 29
33 56 33 60 0 5 8 20 17 33 10 14 18 29 19 35 4 21 39 110 46 115 3 3 10 18
13 33 4 15 11 27 16 27 5 0 9 6 9 13 0 6 15 41 33 77 17 36 33 72 35 80 2 8 9
20 16 25 7 6 13 14 13 18 0 17 27 77 35 77 5 0 7 4 3 9 -7 12 15 61 27 61 5 0
7 3 4 8 -2 4 4 25 14 47 11 22 19 47 20 56 0 9 7 22 15 29 8 7 15 18 15 24 0
18 61 160 72 167 5 3 9 9 9 13 -1 3 14 40 34 81 19 42 35 80 35 85 0 6 4 10
10 10 5 0 9 3 8 8 -3 15 15 62 24 62 5 0 7 4 3 9 -7 12 15 61 27 61 6 0 15
-13 21 -30 6 -16 15 -30 19 -30 4 0 5 -9 3 -20 -2 -13 2 -20 11 -20 8 0 13 -4
9 -9 -3 -5 2 -17 11 -25 8 -9 12 -16 7 -16 -4 0 -3 -4 2 -8 6 -4 17 -20 25
-37 8 -16 21 -41 29 -54 9 -13 16 -31 18 -40 1 -8 9 -21 18 -28 10 -6 14 -16
11 -21 -3 -6 1 -13 10 -16 9 -4 14 -9 11 -12 -3 -4 3 -15 14 -27 10 -11 19
-28 19 -37 0 -8 9 -22 19 -29 11 -8 17 -20 14 -28 -3 -7 -1 -13 5 -13 5 0 12
-8 16 -17 7 -22 28 -56 39 -64 5 -3 9 -10 9 -15 1 -13 21 -58 29 -64 4 -3 14
-22 22 -42 9 -21 21 -38 27 -38 6 0 9 -4 5 -9 -3 -5 1 -15 8 -23 14 -13 17
-19 25 -50 2 -10 8 -18 13 -18 5 0 8 -6 7 -12 -2 -7 4 -11 12 -10 8 2 12 0 8
-4 -7 -6 18 -61 33 -74 8 -7 22 -44 20 -53 0 -4 6 -10 14 -13 8 -3 12 -10 9
-15 -3 -5 2 -12 10 -15 9 -3 14 -10 11 -14 -3 -4 5 -19 16 -34 11 -14 17 -26
13 -26 -4 0 0 -8 9 -18 10 -10 14 -22 10 -25 -3 -4 -2 -7 4 -7 10 0 26 -36 24
-52 -1 -5 3 -8 9 -8 6 0 9 -3 8 -7 -1 -5 3 -18 10 -30 l13 -23 -332 0 c-282 0
-330 -2 -326 -14 3 -8 -1 -17 -9 -20 -10 -4 -13 -2 -8 7 5 9 4 9 -6 0 -11 -10
-11 -15 -1 -27 11 -13 9 -15 -9 -11 -19 4 -21 1 -17 -18 6 -20 5 -21 -7 -4
-12 16 -14 16 -20 2 -4 -11 -2 -14 6 -9 8 5 9 2 5 -9 -3 -9 0 -23 8 -31 8 -7
11 -16 8 -20 -4 -3 -1 -6 5 -6 7 0 10 -12 8 -30 -2 -16 0 -27 5 -25 4 3 10 1
14 -5 4 -6 11 -8 16 -5 5 4 9 0 9 -9 0 -8 6 -16 12 -18 7 -3 13 -13 13 -24 0
-19 24 -19 1213 -19 1221 0 1272 1 1272 33 0 5 20 8 43 6 32 -2 44 1 44 11 0
8 -4 12 -8 9 -4 -2 -11 1 -15 7 -4 8 -3 9 4 5 7 -4 12 -2 12 4 0 6 4 8 10 5 6
-3 7 1 4 9 -3 9 -11 13 -18 9 -6 -3 -6 -1 2 8 18 20 15 33 -5 18 -16 -13 -17
-12 -5 3 8 9 38 24 67 33 49 14 82 35 55 35 -6 0 -9 4 -5 9 3 6 -4 8 -16 6
-17 -4 -20 -2 -11 7 7 7 12 19 12 27 0 10 -3 12 -8 6 -14 -20 -34 -16 -27 5 5
14 2 20 -9 20 -19 0 -21 14 -3 32 7 7 16 22 20 32 4 10 10 16 13 13 4 -3 12
-1 18 6 20 20 66 105 66 120 0 9 3 17 8 19 9 4 52 91 52 106 0 5 7 13 16 16 9
4 14 9 11 12 -3 4 -1 11 4 18 26 30 82 125 118 199 57 119 82 175 85 189 4 19
15 48 33 88 9 19 18 41 19 48 1 8 6 21 10 30 3 9 8 27 10 38 1 12 11 41 22 65
11 24 29 76 42 114 12 39 26 75 30 80 5 6 11 23 14 37 2 15 9 35 15 45 9 17
10 17 17 -2 4 -11 16 -27 26 -36 10 -9 18 -23 18 -32 0 -9 6 -20 13 -24 8 -4
22 -23 32 -40 11 -18 23 -33 27 -33 4 0 8 -9 8 -20 0 -11 7 -20 16 -20 8 0 12
-4 9 -10 -3 -5 -1 -10 4 -10 6 0 11 -7 11 -15 0 -8 4 -15 9 -15 5 0 16 -16 25
-35 9 -19 22 -35 28 -35 6 0 9 -3 5 -6 -5 -6 10 -28 46 -66 9 -10 14 -18 11
-18 -3 0 1 -6 8 -14 7 -7 20 -24 28 -36 8 -12 23 -31 32 -42 10 -11 15 -25 12
-29 -3 -5 2 -9 11 -9 10 0 15 -6 12 -12 -2 -7 9 -24 24 -38 17 -14 29 -34 29
-49 0 -13 3 -22 6 -18 3 3 17 -6 30 -20 22 -24 26 -31 23 -50 0 -3 6 -10 15
-15 9 -5 16 -16 16 -23 0 -8 5 -15 11 -15 5 0 7 -4 4 -10 -3 -5 -1 -10 4 -10
6 0 11 -6 11 -14 0 -7 7 -19 15 -26 9 -7 14 -18 12 -24 -2 -6 5 -19 15 -30 10
-11 18 -26 18 -33 0 -7 4 -13 10 -13 5 0 7 -7 4 -15 -4 -8 -1 -15 6 -15 6 0 9
-4 6 -9 -3 -5 1 -14 9 -21 8 -7 15 -18 15 -24 0 -6 9 -28 20 -49 11 -20 17
-37 13 -37 -5 0 -3 -4 2 -8 11 -7 57 -100 69 -139 4 -13 12 -23 17 -23 6 0 7
-4 4 -10 -3 -5 -1 -10 6 -10 7 0 9 -3 6 -6 -6 -6 19 -61 33 -74 7 -6 93 -174
91 -177 -5 -11 1 -33 8 -29 9 6 61 -31 60 -42 -6 -37 20 -43 51 -12 11 11 21
23 22 28 3 11 28 34 28 25 0 -4 10 -14 21 -22 18 -10 23 -11 30 0 4 8 3 20 -4
28 -10 12 -9 13 2 6 11 -6 13 -4 8 9 -4 9 -3 15 2 12 13 -8 21 20 9 32 -12 12
26 27 43 16 7 -4 9 -3 6 3 -4 6 4 14 17 17 39 10 28 65 -34 171 -51 87 -115
215 -142 283 -7 17 -17 32 -21 32 -5 0 -5 5 -2 10 3 6 1 10 -6 10 -7 0 -10 3
-6 6 6 6 -129 275 -161 322 -10 15 -21 34 -24 42 -3 8 -44 69 -91 135 -47 66
-101 142 -119 168 -18 26 -43 59 -55 73 -13 14 -23 29 -23 34 0 5 -6 15 -13
22 -22 23 -89 118 -83 118 3 0 -2 9 -11 19 -28 30 -36 42 -70 97 -17 28 -56
84 -87 124 -31 40 -56 76 -56 80 0 5 -6 15 -13 22 -7 7 -25 34 -40 61 l-28 47
23 48 c12 26 22 53 21 60 0 6 3 12 8 12 16 0 10 59 -7 68 -9 5 -17 13 -17 18
-1 5 -8 8 -15 8 -8 -1 -12 7 -10 20 3 18 -1 20 -24 18 -16 -2 -28 1 -28 7 0 6
-7 8 -15 5 -8 -4 -12 -11 -8 -18 4 -8 2 -8 -7 1 -9 9 -22 8 -51 -2 -22 -8 -39
-10 -39 -5 0 6 -7 10 -16 10 -8 0 -13 4 -10 9 8 12 -18 21 -34 11z m-313 -685
c0 -8 -4 -15 -9 -15 -10 0 -11 14 -1 23 9 10 10 9 10 -8z m-3820 -1160 c0 -8
-4 -12 -9 -9 -5 3 -6 10 -3 15 9 13 12 11 12 -6z"/>
<path d="M5866 8074 c-5 -14 -4 -15 9 -4 17 14 19 20 6 20 -5 0 -12 -7 -15
-16z"/>
<path d="M2410 7715 c-7 -9 -11 -17 -9 -20 3 -2 10 5 17 15 14 24 10 26 -8 5z"/>
<path d="M5665 7529 c-4 -6 -5 -12 -2 -15 2 -3 7 2 10 11 7 17 1 20 -8 4z"/>
<path d="M5645 7460 c3 -5 8 -10 11 -10 2 0 4 5 4 10 0 6 -5 10 -11 10 -5 0
-7 -4 -4 -10z"/>
<path d="M2169 7163 c-13 -16 -12 -17 4 -4 9 7 17 15 17 17 0 8 -8 3 -21 -13z"/>
<path d="M2020 6845 c-7 -9 -8 -15 -2 -15 5 0 12 7 16 15 3 8 4 15 2 15 -2 0
-9 -7 -16 -15z"/>
<path d="M8244 6583 c0 -10 -5 -17 -11 -15 -8 1 -13 -8 -13 -23 0 -14 -5 -25
-11 -25 -5 0 -7 6 -3 13 4 6 -5 1 -20 -13 -22 -20 -24 -26 -12 -28 9 -2 14 -8
10 -13 -3 -5 -10 -6 -16 -3 -6 4 -6 -2 1 -15 9 -16 9 -21 -1 -21 -9 0 -9 -3 2
-10 12 -8 13 -11 1 -19 -9 -6 -10 -11 -2 -15 7 -4 7 -15 1 -30 -5 -13 -6 -27
-3 -30 8 -8 8 -69 0 -90 -4 -10 -3 -15 3 -11 6 3 10 1 10 -4 0 -6 -6 -11 -12
-11 -8 0 -9 -3 -3 -8 15 -11 17 -32 3 -32 -9 0 -8 -4 2 -10 13 -8 13 -10 1
-10 -11 0 -10 -4 5 -16 10 -8 14 -13 8 -10 -7 3 -14 -1 -18 -9 -3 -8 -2 -15 2
-15 6 0 7 -86 2 -115 -2 -6 -1 -14 0 -20 2 -13 2 -87 0 -100 -1 -5 -1 -14 0
-20 4 -25 2 -217 -4 -222 -3 -3 -1 -13 6 -20 9 -11 9 -16 -1 -23 -9 -5 -10
-10 -2 -14 7 -4 7 -15 1 -31 -6 -15 -6 -27 0 -30 6 -3 6 -15 0 -30 -5 -13 -6
-26 -2 -29 8 -5 6 -135 -2 -144 -3 -3 -1 -12 6 -19 9 -11 9 -16 -1 -23 -9 -5
-10 -10 -2 -14 7 -4 7 -15 1 -31 -6 -15 -6 -27 0 -30 6 -3 6 -15 0 -30 -5 -13
-6 -26 -2 -29 8 -5 6 -135 -2 -144 -3 -3 -1 -12 6 -19 9 -11 9 -16 -1 -23 -9
-5 -10 -10 -2 -14 6 -4 11 -12 11 -17 0 -6 -6 -7 -12 -3 -9 5 -9 2 1 -9 9 -12
10 -17 2 -17 -7 0 -9 -5 -5 -11 10 -17 10 -209 0 -209 -5 0 -3 -7 5 -16 10
-13 10 -17 0 -24 -9 -5 -10 -10 -2 -14 6 -4 11 -12 11 -17 0 -6 -6 -7 -12 -3
-9 5 -9 2 1 -9 10 -13 10 -17 1 -17 -9 0 -9 -4 -2 -12 5 -7 6 -22 2 -33 -5
-13 -2 -27 9 -39 9 -11 10 -16 4 -12 -10 5 -13 -3 -12 -31 1 -21 0 -42 -1 -48
-1 -5 -1 -14 0 -20 2 -13 2 -87 0 -100 -1 -5 -1 -13 0 -17 5 -19 3 -76 -3 -92
-4 -10 -3 -15 3 -11 6 3 10 1 10 -4 0 -6 -6 -11 -12 -11 -8 0 -9 -3 -3 -8 15
-11 17 -32 3 -32 -9 0 -8 -4 2 -10 13 -8 13 -10 1 -10 -11 0 -10 -4 5 -16 10
-8 14 -13 8 -10 -7 3 -14 -1 -18 -9 -3 -8 -2 -15 2 -15 6 0 7 -86 2 -115 -2
-6 -1 -14 0 -20 2 -13 2 -87 0 -100 -1 -5 -1 -13 0 -17 5 -19 3 -76 -3 -92 -4
-10 -3 -15 3 -11 6 3 10 1 10 -4 0 -6 -6 -11 -12 -11 -8 0 -9 -3 -3 -8 15 -11
17 -32 3 -32 -9 0 -8 -4 2 -10 13 -8 13 -10 1 -10 -11 0 -10 -4 5 -16 10 -8
14 -13 8 -10 -7 3 -14 -1 -18 -9 -3 -8 -2 -15 2 -15 6 0 7 -86 2 -115 -2 -6
-1 -14 0 -20 2 -13 2 -87 0 -100 -1 -5 -1 -14 0 -20 4 -25 2 -217 -4 -222 -3
-3 -1 -13 6 -20 9 -11 9 -16 -1 -23 -9 -5 -10 -10 -2 -14 6 -4 11 -12 11 -17
0 -6 -6 -7 -12 -3 -9 5 -9 2 1 -9 11 -14 11 -17 0 -17 -10 0 -10 -3 -2 -11 7
-7 8 -20 3 -34 -6 -15 -4 -27 3 -35 9 -10 9 -14 -1 -17 -6 -3 -9 -10 -5 -16 9
-15 10 -56 1 -51 -4 3 -8 1 -8 -3 0 -5 -39 -8 -87 -7 -207 4 -546 15 -638 20
-55 3 -194 6 -310 6 l-210 1 1 83 c1 46 4 90 7 99 4 8 3 15 -1 15 -9 0 -7 214
2 229 4 6 4 11 -1 11 -10 0 -10 121 0 137 4 6 4 14 0 16 -10 6 -8 141 1 156 4
6 3 11 -2 11 -6 0 -8 10 -4 22 4 16 2 19 -9 13 -11 -7 -12 -6 -2 7 7 8 12 30
10 49 -2 19 0 42 5 52 5 9 5 17 1 17 -4 0 -8 412 -7 916 1 767 -1 914 -12 910
-10 -4 -14 3 -14 21 0 22 -2 24 -15 13 -13 -11 -14 -10 -9 4 8 21 -24 34 -38
15 -7 -10 -8 -8 -3 9 4 13 2 22 -4 22 -6 0 -11 -4 -11 -9 0 -5 -9 -7 -20 -4
-12 3 -20 0 -20 -7 0 -10 -3 -10 -15 0 -12 10 -15 10 -15 0 0 -8 -3 -10 -6 -7
-4 3 -14 2 -24 -3 -13 -7 -22 -3 -38 15 -27 31 -42 32 -42 4 0 -16 -3 -19 -13
-11 -10 8 -13 6 -14 -8 -2 -23 -40 -63 -53 -55 -5 3 -5 -7 0 -25 5 -19 5 -30
-1 -30 -6 0 -5 -8 1 -20 8 -15 8 -20 -1 -20 -8 0 -7 -5 2 -17 11 -13 11 -17 1
-20 -6 -3 -9 -10 -5 -16 4 -6 6 -39 4 -72 -1 -33 -2 -67 -2 -75 1 -8 1 -26 1
-39 0 -14 6 -28 12 -33 9 -5 8 -8 -5 -8 -15 0 -16 -3 -7 -20 8 -15 8 -20 -1
-20 -8 0 -7 -5 2 -17 11 -13 11 -17 1 -20 -6 -3 -9 -10 -5 -16 4 -6 6 -39 4
-72 -1 -33 -2 -67 -2 -75 1 -8 1 -26 1 -39 0 -14 6 -28 12 -33 9 -5 8 -8 -5
-8 -15 0 -16 -3 -7 -20 8 -15 8 -20 -2 -20 -9 0 -9 -3 0 -12 15 -15 16 -31 0
-22 -7 5 -8 3 -3 -6 5 -8 7 -43 6 -79 -1 -36 -2 -73 -2 -81 1 -8 1 -26 1 -39
0 -14 6 -28 12 -33 9 -5 8 -8 -5 -8 -15 0 -16 -3 -7 -20 8 -15 8 -20 -2 -20
-9 0 -9 -3 0 -12 15 -15 16 -31 0 -22 -7 5 -8 3 -3 -5 10 -17 12 -161 2 -161
-5 0 -5 -6 0 -12 4 -7 6 -21 4 -32 -1 -10 3 -23 11 -27 10 -7 9 -9 -5 -9 -15
0 -16 -3 -7 -20 8 -15 8 -20 -2 -20 -9 0 -9 -3 0 -12 15 -15 16 -31 0 -22 -7
5 -8 3 -3 -5 10 -17 12 -161 2 -161 -5 0 -5 -6 0 -12 4 -7 6 -21 4 -32 -1 -10
3 -23 11 -27 10 -7 9 -9 -5 -9 -15 0 -16 -3 -7 -20 8 -14 8 -20 0 -20 -6 0 -8
-5 -4 -12 12 -18 11 -58 -1 -58 -6 0 -7 -3 0 -8 12 -8 14 -162 2 -162 -4 0 -3
-10 4 -21 9 -17 8 -20 -3 -13 -8 5 -6 -3 6 -20 10 -16 12 -25 6 -21 -10 6 -12
1 -8 -19 3 -14 1 -26 -4 -26 -5 0 -4 -10 3 -21 9 -17 8 -20 -3 -13 -8 5 -6 -3
6 -20 10 -16 14 -26 8 -22 -6 3 -12 -9 -14 -28 -2 -19 -1 -33 4 -30 11 7 4
-50 -7 -58 -7 -5 -7 -8 0 -8 6 0 9 -29 8 -72 -1 -48 2 -75 10 -80 8 -5 6 -8
-6 -8 -15 0 -16 -3 -6 -21 8 -17 8 -20 -1 -14 -9 6 -10 3 -3 -10 6 -10 8 -27
5 -37 -3 -11 1 -24 9 -29 11 -7 10 -9 -4 -9 -15 0 -16 -3 -7 -20 8 -14 8 -20
0 -20 -6 0 -8 -5 -4 -12 10 -17 11 -68 0 -68 -5 0 -5 -5 0 -12 5 -7 9 -26 9
-43 l0 -30 -2182 -2 c-1687 -1 -2183 1 -2183 10 -1 7 -1 657 -1 1445 0 788 -4
1430 -9 1427 -4 -3 -11 6 -14 20 -5 21 -10 24 -25 15 -16 -8 -18 -7 -14 10 4
14 0 20 -11 20 -9 0 -16 5 -16 10 0 6 -5 10 -11 10 -5 0 -8 -4 -5 -9 3 -5 -9
-8 -27 -7 -17 2 -45 -4 -61 -12 -23 -11 -27 -11 -21 0 6 10 5 10 -5 1 -10 -9
-18 -5 -35 15 -20 23 -26 25 -37 13 -11 -12 -11 -13 1 -6 10 6 12 4 7 -4 -5
-7 -15 -10 -23 -7 -8 3 -12 2 -9 -2 6 -11 -24 -72 -36 -72 -5 0 -6 4 -3 10 4
6 -1 7 -11 3 -12 -4 -14 -8 -6 -11 10 -3 10 -7 1 -18 -7 -9 -8 -14 -1 -14 11
0 10 -45 -1 -57 -13 -13 -7 -25 9 -19 14 5 15 4 4 -9 -7 -8 -9 -15 -5 -15 4 0
2 -6 -4 -14 -9 -10 -9 -16 -1 -21 8 -5 7 -11 -1 -22 -8 -9 -9 -17 -3 -21 11
-8 12 -62 1 -79 -5 -8 -3 -13 3 -13 7 0 8 -6 2 -17 -10 -19 -9 -35 3 -73 5
-15 4 -20 -4 -16 -8 5 -8 0 -2 -17 6 -16 6 -28 -2 -36 -8 -8 -8 -11 0 -11 12
0 12 -18 0 -37 -5 -8 -3 -13 4 -13 8 0 8 -4 -1 -15 -10 -12 -10 -15 1 -15 11
0 11 -2 -1 -10 -9 -6 -10 -10 -3 -10 12 0 11 -49 -2 -70 -3 -5 -1 -10 6 -10 8
0 8 -4 -2 -16 -7 -9 -9 -18 -3 -22 11 -8 12 -62 1 -79 -5 -8 -3 -13 3 -13 7 0
8 -6 2 -17 -10 -19 -9 -35 3 -73 5 -15 4 -20 -4 -16 -8 5 -8 0 -2 -17 6 -16 6
-28 -2 -36 -8 -8 -8 -11 0 -11 12 0 12 -18 0 -37 -5 -8 -3 -13 4 -13 8 0 8 -4
-1 -15 -10 -12 -10 -15 1 -15 12 0 12 -2 1 -9 -11 -6 -10 -10 3 -15 14 -5 15
-9 5 -21 -7 -8 -9 -15 -5 -15 4 0 2 -6 -4 -14 -9 -10 -9 -16 -1 -21 8 -5 7
-11 -2 -23 -9 -11 -10 -16 -2 -19 12 -4 10 -56 -3 -75 -4 -8 0 -9 12 -4 15 5
16 4 5 -9 -7 -8 -9 -15 -4 -15 4 0 3 -5 -4 -12 -17 -17 -15 -31 4 -24 14 5 15
4 4 -9 -7 -8 -9 -15 -6 -15 4 0 2 -9 -4 -20 -8 -15 -8 -20 1 -20 8 0 8 -4 -1
-15 -10 -12 -10 -15 0 -15 10 0 10 -3 0 -15 -10 -12 -10 -15 1 -15 12 0 12 -2
1 -9 -11 -6 -10 -10 3 -15 14 -5 15 -9 5 -21 -7 -8 -9 -15 -5 -15 4 0 2 -6 -4
-14 -8 -10 -9 -16 -1 -21 7 -4 7 -13 -1 -27 -10 -18 -9 -20 6 -14 15 5 16 4 5
-9 -7 -8 -9 -15 -4 -15 4 0 3 -5 -4 -12 -17 -17 -15 -31 4 -24 14 5 15 4 4 -9
-7 -8 -9 -15 -6 -15 4 0 2 -9 -4 -20 -8 -15 -8 -20 1 -20 8 0 8 -4 -1 -15 -10
-12 -10 -15 0 -15 10 0 10 -3 0 -15 -10 -12 -10 -15 1 -15 12 0 12 -2 1 -9
-11 -6 -10 -10 3 -15 14 -5 15 -9 5 -21 -7 -8 -9 -15 -5 -15 4 0 2 -6 -4 -14
-7 -9 -8 -17 -2 -20 10 -7 9 -25 -2 -43 -5 -8 -3 -13 3 -13 7 0 8 -6 2 -17
-10 -19 -9 -35 3 -73 5 -15 4 -20 -4 -16 -8 5 -8 0 -2 -17 6 -16 6 -28 -2 -36
-8 -8 -8 -11 0 -11 12 0 12 -18 0 -37 -5 -8 -3 -13 4 -13 8 0 8 -4 -1 -15 -10
-12 -10 -15 1 -15 12 0 12 -2 1 -9 -11 -6 -10 -10 3 -15 14 -5 15 -9 5 -21 -7
-8 -9 -15 -6 -15 4 0 2 -9 -4 -20 -8 -15 -8 -20 1 -20 8 0 8 -5 -2 -16 -7 -9
-9 -18 -3 -22 11 -8 12 -62 1 -79 -5 -8 -3 -13 3 -13 7 0 8 -6 2 -17 -10 -19
-9 -35 3 -73 5 -16 4 -20 -5 -15 -9 6 -9 3 -1 -12 7 -14 7 -23 -1 -31 -9 -9
-9 -12 0 -12 9 0 10 -5 4 -17 -10 -19 -9 -35 3 -73 5 -15 4 -20 -4 -16 -8 5
-8 0 -2 -17 6 -16 6 -28 -2 -36 -8 -8 -8 -11 0 -11 12 0 12 -18 0 -37 -5 -8
-3 -13 4 -13 8 0 8 -4 -1 -15 -10 -12 -10 -15 1 -15 12 0 12 -2 1 -9 -11 -6
-10 -10 3 -15 14 -5 15 -9 5 -21 -7 -8 -9 -15 -6 -15 4 0 2 -9 -4 -20 -8 -15
-8 -20 1 -20 8 0 8 -5 -2 -16 -7 -9 -9 -18 -3 -22 13 -10 17 -35 4 -27 -5 3
-10 1 -10 -4 0 -6 6 -11 13 -11 8 0 7 -4 -3 -10 -10 -6 -11 -10 -2 -10 6 0 12
-7 12 -15 0 -8 5 -15 11 -15 6 0 9 -9 6 -20 -3 -11 -1 -23 4 -26 5 -3 7 -9 5
-13 -3 -4 5 -14 16 -22 37 -25 59 -49 53 -59 -4 -6 0 -11 7 -11 7 -1 1172 -3
2588 -4 1416 -2 2688 -5 2825 -8 138 -4 378 -9 535 -12 157 -4 312 -8 345 -9
60 -3 94 6 107 29 4 7 21 11 38 10 17 -1 30 2 30 9 0 6 4 4 10 -4 8 -12 10
-12 15 2 4 9 8 25 10 35 2 10 4 20 5 23 1 3 2 8 1 13 0 4 3 7 9 7 5 0 7 7 4
15 -5 13 5 20 28 16 11 -1 71 63 62 66 -5 2 -9 815 -8 1899 1 1598 -1 1894
-12 1890 -12 -5 -19 11 -15 36 0 4 -8 5 -18 3 -15 -3 -19 1 -16 16 3 16 1 17
-15 9 -13 -7 -21 -7 -26 2 -4 7 -3 8 4 4 7 -4 12 -2 12 4 0 7 -8 9 -22 4 -13
-4 -31 -7 -40 -6 -10 0 -18 -3 -18 -8 0 -4 -8 -7 -17 -5 -10 1 -23 -1 -29 -6
-7 -5 -20 1 -34 16 -27 29 -48 32 -46 8z m-44 -73 c0 -5 -5 -10 -11 -10 -5 0
-7 5 -4 10 3 6 8 10 11 10 2 0 4 -4 4 -10z"/>
<path d="M5577 6515 c-4 -8 -3 -16 1 -19 4 -3 9 4 9 15 2 23 -3 25 -10 4z"/>
<path d="M5514 5208 c-5 -7 -3 -8 5 -3 10 5 9 2 0 -13 -7 -12 -18 -20 -23 -19
-6 1 -10 -4 -8 -10 1 -7 -3 -13 -9 -13 -6 0 -8 -9 -3 -22 7 -23 6 -23 -14 -4
-21 18 -21 18 -16 -9 3 -20 1 -25 -8 -19 -10 6 -10 5 0 -8 9 -12 10 -18 2 -23
-8 -5 -8 -11 1 -21 9 -11 8 -14 -2 -14 -12 0 -12 -2 0 -9 9 -6 10 -11 2 -15
-6 -4 -8 -13 -4 -19 12 -20 12 -37 0 -37 -8 0 -7 -3 2 -9 9 -6 10 -10 2 -16
-9 -5 -9 -10 -1 -20 8 -10 8 -15 0 -20 -8 -5 -8 -10 0 -20 8 -10 8 -15 0 -20
-8 -5 -8 -11 1 -21 6 -8 7 -14 2 -14 -11 0 -11 -29 0 -47 4 -6 1 -14 -5 -16
-10 -4 -9 -6 1 -6 11 -1 11 -4 1 -16 -10 -12 -10 -15 0 -15 10 0 10 -3 1 -14
-9 -11 -9 -16 0 -21 8 -6 7 -10 -2 -16 -12 -7 -12 -9 0 -9 10 0 11 -3 2 -14
-9 -11 -9 -16 0 -21 8 -6 7 -10 -2 -16 -12 -7 -12 -9 0 -9 10 0 11 -3 2 -14
-9 -11 -9 -16 0 -21 8 -6 7 -10 -2 -16 -12 -7 -12 -9 0 -9 10 0 11 -3 2 -14
-9 -11 -9 -16 0 -21 8 -6 7 -10 -2 -16 -12 -7 -12 -9 0 -9 10 0 11 -3 2 -14
-9 -11 -9 -16 0 -21 8 -6 7 -10 -2 -16 -12 -7 -12 -9 0 -9 10 0 11 -3 2 -14
-9 -11 -9 -16 0 -21 8 -6 7 -10 -2 -16 -12 -7 -12 -9 0 -9 10 0 11 -3 2 -14
-9 -11 -9 -16 0 -21 8 -6 7 -10 -2 -16 -12 -7 -12 -9 0 -9 10 0 11 -3 2 -13
-6 -8 -8 -17 -4 -21 12 -12 12 -36 0 -36 -8 0 -7 -3 2 -9 9 -6 10 -11 2 -15
-6 -4 -8 -13 -4 -19 11 -18 12 -36 2 -43 -5 -3 -9 0 -9 5 0 6 -7 11 -15 11 -9
0 -18 7 -21 15 -4 8 -9 13 -13 11 -4 -3 -20 6 -36 20 -15 13 -34 24 -40 24 -7
0 -15 6 -18 13 -3 8 -21 22 -41 31 -20 9 -36 21 -36 26 0 6 -6 10 -13 10 -7 0
-27 13 -45 29 -17 17 -32 27 -32 25 0 -3 -18 8 -39 25 -21 17 -43 31 -49 31
-6 0 -12 4 -14 8 -5 14 -189 132 -206 133 -9 1 -24 2 -32 3 -8 1 -21 -3 -27
-8 -7 -4 -13 -6 -13 -3 0 4 -10 3 -22 -2 -16 -6 -34 -3 -60 10 -35 18 -59 17
-83 -3 -5 -5 -46 -31 -90 -58 -44 -27 -85 -53 -91 -57 -18 -14 -49 -33 -64
-40 -8 -4 -19 -11 -25 -16 -5 -4 -45 -29 -87 -55 -42 -26 -148 -92 -235 -147
-87 -55 -161 -99 -165 -97 -5 1 -8 -2 -8 -8 0 -8 -50 -40 -62 -40 -2 0 -2 237
-2 527 1 290 -1 533 -3 540 -3 7 -9 13 -15 13 -5 0 -6 -5 -2 -12 4 -7 3 -8 -5
-4 -9 6 -9 11 0 22 9 11 7 14 -10 14 -13 0 -21 6 -21 16 0 10 -6 14 -15 10 -9
-3 -15 0 -15 8 0 15 -16 16 -37 3 -7 -5 -13 -5 -13 -1 0 3 -8 0 -17 -7 -14
-12 -16 -12 -8 0 6 11 5 12 -6 5 -8 -4 -18 -9 -24 -10 -5 -1 -17 -5 -26 -8
-10 -5 -20 2 -28 18 -15 27 -53 32 -48 6 1 -8 -4 -14 -10 -12 -8 1 -13 -8 -13
-23 0 -14 -5 -25 -10 -25 -6 0 -19 -9 -30 -20 -11 -11 -15 -20 -10 -20 12 0 9
-22 -5 -32 -6 -5 -4 -8 5 -8 13 0 13 -1 0 -10 -8 -5 -10 -10 -5 -10 6 0 11 -9
12 -20 1 -11 -1 -19 -5 -16 -4 2 -7 -7 -7 -20 0 -15 5 -22 13 -19 8 3 7 -4 -4
-20 -11 -16 -12 -25 -5 -25 9 0 9 -5 0 -22 -10 -18 -9 -20 5 -15 15 6 15 4 0
-18 -9 -14 -12 -25 -7 -25 6 0 8 -12 6 -27 -7 -45 -7 -47 1 -72 5 -14 4 -21
-1 -18 -11 7 -11 -29 0 -39 4 -4 2 -14 -5 -21 -9 -11 -9 -16 1 -22 18 -11 18
-16 3 -34 -9 -10 -10 -17 -2 -22 5 -3 10 -11 10 -16 0 -6 -4 -8 -8 -5 -7 4 -8
-33 -2 -41 7 -8 5 -30 -3 -40 -6 -9 -5 -13 2 -13 8 0 9 -5 2 -18 -5 -10 -6
-24 -1 -32 5 -8 5 -21 1 -29 -5 -9 -5 -25 0 -36 10 -27 11 -37 1 -31 -10 6 -9
-30 1 -40 10 -10 9 -26 -1 -20 -5 3 -9 -1 -9 -9 0 -8 3 -15 7 -15 3 0 6 -9 7
-20 1 -12 -3 -18 -9 -14 -7 4 -7 0 1 -13 7 -14 7 -23 -1 -31 -9 -9 -9 -12 0
-12 9 0 10 -5 3 -18 -5 -10 -6 -24 -1 -32 5 -8 5 -21 1 -29 -5 -9 -5 -25 0
-36 10 -27 11 -37 1 -31 -10 6 -9 -30 1 -40 10 -10 9 -26 -1 -20 -5 3 -9 -1
-9 -9 0 -8 3 -15 7 -15 3 0 6 -9 7 -20 1 -11 -2 -18 -6 -16 -4 3 -3 -12 3 -34
5 -22 14 -40 18 -40 4 0 8 -11 8 -24 0 -14 4 -27 10 -31 5 -3 7 -12 3 -20 -3
-10 1 -15 12 -15 21 0 68 -48 60 -61 -7 -10 -8 -10 55 -14 29 -2 62 4 93 17
26 12 55 22 65 23 29 3 75 25 88 43 11 14 14 14 14 2 1 -11 3 -10 9 3 4 10 10
18 15 17 4 -1 14 7 23 17 8 11 12 12 8 3 -4 -8 3 -4 15 10 12 14 18 19 14 11
-5 -10 3 -8 25 5 17 10 31 21 31 25 0 4 14 12 31 18 19 7 28 15 23 22 -4 7 -3
9 4 5 6 -3 13 -2 17 4 4 6 11 7 17 4 7 -5 9 -2 6 8 -5 11 0 15 15 14 17 -1 21
4 19 19 -2 17 -1 18 8 5 9 -11 13 -12 17 -2 2 6 11 12 19 12 8 0 17 7 21 16 3
8 12 13 19 10 13 -5 18 5 15 26 0 4 6 5 14 2 19 -8 47 14 38 29 -3 5 -1 7 5 4
16 -11 44 4 38 20 -4 8 -1 11 5 7 15 -9 60 16 52 29 -4 6 0 8 10 4 10 -4 20 0
26 11 6 9 11 13 11 9 0 -11 43 13 53 29 4 8 15 14 22 14 8 0 15 5 15 11 0 6 6
9 14 6 8 -3 19 5 27 19 7 13 15 20 19 15 3 -6 18 0 34 14 16 14 33 22 37 19 5
-3 9 -1 9 5 0 5 -6 12 -12 15 -7 3 -3 3 10 0 15 -4 24 0 28 10 3 9 11 13 16
10 6 -4 14 -1 18 6 9 14 39 1 74 -31 11 -11 24 -19 28 -19 5 0 18 -9 30 -20
12 -11 28 -20 35 -20 7 0 13 -4 13 -10 0 -5 13 -16 29 -25 16 -8 35 -20 43
-27 24 -23 139 -98 149 -98 6 0 8 -4 5 -8 -2 -4 8 -13 23 -20 15 -7 36 -20 47
-30 10 -9 31 -23 47 -31 15 -8 27 -18 27 -23 0 -4 4 -8 10 -8 5 0 29 -15 53
-32 24 -18 53 -38 63 -45 10 -7 54 -37 97 -68 43 -30 82 -55 88 -55 5 0 9 -5
9 -11 0 -14 52 -2 62 14 24 39 32 46 44 36 7 -5 24 -12 38 -15 24 -4 26 -2 22
21 -3 14 2 31 10 40 9 9 11 15 4 15 -8 0 -8 6 0 20 6 11 17 20 25 20 8 0 25 5
39 11 l25 12 0 644 c0 638 -1 645 -21 651 -15 4 -17 7 -6 13 10 7 11 9 0 9 -7
0 -10 4 -7 10 3 6 -1 7 -9 4 -11 -4 -16 0 -16 11 0 11 -5 15 -15 11 -8 -3 -15
0 -15 7 0 7 -9 13 -19 13 -11 0 -18 -4 -15 -8 2 -4 -4 -7 -13 -7 -21 1 -73
-10 -84 -16 -4 -3 -18 6 -30 20 -27 28 -35 30 -45 13z m-1593 -1431 c-10 -9
-11 -8 -5 6 3 10 9 15 12 12 3 -3 0 -11 -7 -18z"/>
</g>
</svg>
